<svg height="50pt" viewBox="0.00 0.00 374.79 49.60" width="375pt" xmlns="http://www.w3.org/2000/svg" xmlns:xlink="http://www.w3.org/1999/xlink">
<g class="graph" id="graph0" transform="scale(1 1) rotate(0) translate(4 45.5963)">
<title>Lista</title>
<polygon fill="#ffffff" points="-4,4 -4,-45.5963 370.7889,-45.5963 370.7889,4 -4,4" stroke="transparent"/>
<!-- primero -->
<g class="node" id="node1">
<title>primero</title>
<text fill="#000000" font-family="Times,serif" font-size="14.00" text-anchor="middle" x="31" y="-17.0982">primero</text>
</g>
<!-- 65 -->
<g class="node" id="node3">
<title>65</title>
<ellipse cx="118.7982" cy="-20.7982" fill="none" rx="20.5982" ry="20.5982" stroke="#000000"/>
<text fill="#000000" font-family="Times,serif" font-size="14.00" text-anchor="middle" x="118.7982" y="-17.0982">65</text>
</g>
<!-- primero&#45;&gt;65 -->
<g class="edge" id="edge1">
<title>primero-&gt;65</title>
<path d="M62.2016,-20.7982C70.519,-20.7982 79.5018,-20.7982 87.8079,-20.7982" fill="none" stroke="#000000"/>
<polygon fill="#000000" points="87.866,-24.2983 97.8659,-20.7982 87.8659,-17.2983 87.866,-24.2983" stroke="#000000"/>
</g>
<g class="node" id="node2">
<title/>
<polygon fill="none" points="366.7889,-38.7982 330.7889,-38.7982 330.7889,-2.7982 366.7889,-2.7982 366.7889,-38.7982" stroke="#000000"/>
</g>
<!-- 13 -->
<g class="node" id="node4">
<title>13</title>
<ellipse cx="196.3945" cy="-20.7982" fill="none" rx="20.5982" ry="20.5982" stroke="#000000"/>
<text fill="#000000" font-family="Times,serif" font-size="14.00" text-anchor="middle" x="196.3945" y="-17.0982">13</text>
</g>
<!-- 65&#45;&gt;13 -->
<g class="edge" id="edge2">
<title>65-&gt;13</title>
<path d="M140.0017,-20.7982C147.8495,-20.7982 156.9158,-20.7982 165.4525,-20.7982" fill="none" stroke="#000000"/>
<polygon fill="#000000" points="165.4853,-24.2983 175.4852,-20.7982 165.4852,-17.2983 165.4853,-24.2983" stroke="#000000"/>
</g>
<!-- 44 -->
<g class="node" id="node5">
<title>44</title>
<ellipse cx="273.9908" cy="-20.7982" fill="none" rx="20.5982" ry="20.5982" stroke="#000000"/>
<text fill="#000000" font-family="Times,serif" font-size="14.00" text-anchor="middle" x="273.9908" y="-17.0982">44</text>
</g>
<!-- 13&#45;&gt;44 -->
<g class="edge" id="edge3">
<title>13-&gt;44</title>
<path d="M217.598,-20.7982C225.4458,-20.7982 234.5121,-20.7982 243.0488,-20.7982" fill="none" stroke="#000000"/>
<polygon fill="#000000" points="243.0816,-24.2983 253.0815,-20.7982 243.0815,-17.2983 243.0816,-24.2983" stroke="#000000"/>
</g>
<!-- 44&#45;&gt; -->
<g class="edge" id="edge4">
<title>44-&gt;</title>
<path d="M294.8262,-20.7982C302.7286,-20.7982 311.8675,-20.7982 320.3524,-20.7982" fill="none" stroke="#000000"/>
<polygon fill="#000000" points="320.6078,-24.2983 330.6078,-20.7982 320.6078,-17.2983 320.6078,-24.2983" stroke="#000000"/>
</g>
</g>
</svg>